{
  "accessors": [
    {
      "bufferView": 2,
      "componentType": 5126,
      "count": 246,
      "max": [
        -0.16360116004943848,
        6.193016529083252,
        1.0584043264389038
      ],
      "min": [
        -0.6865939497947693,
        0.0,
        -0.9048962593078613
      ],
      "type": "VEC3"
    },
    {
      "bufferView": 2,
      "byteOffset": 2952,
      "componentType": 5126,
      "count": 246,
      "max": [
        1.0,
        1.0,
        0.9883413910865784
      ],
      "min": [
        -0.9999178051948547,
        -1.0,
        -0.9879195094108582
      ],
      "type": "VEC3"
    },
    {
      "bufferView": 3,
      "componentType": 5126,
      "count": 246,
      "max": [
        0.8843453526496887,
        0.5464017987251282,
        0.8676880598068237,
        1.0
      ],
      "min": [
        -0.8529600501060486,
        -0.5009099841117859,
        0.12412804365158081,
        1.0
      ],
      "type": "VEC4"
    },
    {
      "bufferView": 1,
      "componentType": 5126,
      "count": 246,
      "max": [
        0.4122990667819977,
        0.5213425159454346
      ],
      "min": [
        0.06290601193904877,
        0.0
      ],
      "type": "VEC2"
    },
    {
      "bufferView": 0,
      "componentType": 5125,
      "count": 684,
      "type": "SCALAR"
    },
    {
      "bufferView": 2,
      "byteOffset": 5904,
      "componentType": 5126,
      "count": 720,
      "max": [
        0.3203684091567993,
        15.441032409667969,
        4.634208679199219
      ],
      "min": [
        -0.32036834955215454,
        0.0,
        -4.634208679199219
      ],
      "type": "VEC3"
    },
    {
      "bufferView": 2,
      "byteOffset": 14544,
      "componentType": 5126,
      "count": 720,
      "max": [
        1.0,
        1.0,
        0.9999996423721313
      ],
      "min": [
        -1.0,
        -1.0,
        -0.999991238117218
      ],
      "type": "VEC3"
    },
    {
      "bufferView": 3,
      "byteOffset": 3936,
      "componentType": 5126,
      "count": 720,
      "max": [
        0.998924195766449,
        0.8863605260848999,
        0.8068884611129761,
        1.0
      ],
      "min": [
        -0.26679834723472595,
        -0.858190655708313,
        -0.963753879070282,
        1.0
      ],
      "type": "VEC4"
    },
    {
      "bufferView": 1,
      "byteOffset": 1968,
      "componentType": 5126,
      "count": 720,
      "max": [
        0.931083083152771,
        1.0
      ],
      "min": [
        0.0,
        0.0
      ],
      "type": "VEC2"
    },
    {
      "bufferView": 0,
      "byteOffset": 2736,
      "componentType": 5125,
      "count": 2352,
      "type": "SCALAR"
    },
    {
      "bufferView": 2,
      "byteOffset": 23184,
      "componentType": 5126,
      "count": 246,
      "max": [
        0.6865939497947693,
        6.193016529083252,
        1.0584043264389038
      ],
      "min": [
        0.16360121965408325,
        0.0,
        -0.9048962593078613
      ],
      "type": "VEC3"
    },
    {
      "bufferView": 2,
      "byteOffset": 26136,
      "componentType": 5126,
      "count": 246,
      "max": [
        0.9999178051948547,
        1.0,
        0.9880869388580322
      ],
      "min": [
        -1.0,
        -1.0,
        -0.9883414506912231
      ],
      "type": "VEC3"
    },
    {
      "bufferView": 3,
      "byteOffset": 15456,
      "componentType": 5126,
      "count": 246,
      "max": [
        0.8529600501060486,
        0.5464019179344177,
        -0.12413106858730316,
        1.0
      ],
      "min": [
        -0.8843455910682678,
        -0.5027368068695068,
        -0.8676880598068237,
        1.0
      ],
      "type": "VEC4"
    },
    {
      "bufferView": 1,
      "byteOffset": 7728,
      "componentType": 5126,
      "count": 246,
      "max": [
        0.4122990667819977,
        0.5213425159454346
      ],
      "min": [
        0.06290601193904877,
        0.0
      ],
      "type": "VEC2"
    },
    {
      "bufferView": 0,
      "byteOffset": 12144,
      "componentType": 5125,
      "count": 684,
      "type": "SCALAR"
    }
  ],
  "asset": {
    "extras": {
      "author": "RED2000 (https://sketchfab.com/RED2000)",
      "license": "SKETCHFAB Standard (https://sketchfab.com/licenses)",
      "source": "https://sketchfab.com/3d-models/ping-pong-racket-2327548c9eb0483ebca8ddf7d6bd4633",
      "title": "Ping Pong Racket"
    },
    "generator": "Sketchfab-12.68.0",
    "version": "2.0"
  },
  "bufferViews": [
    {
      "buffer": 0,
      "byteLength": 14880,
      "name": "floatBufferViews",
      "target": 34963
    },
    {
      "buffer": 0,
      "byteLength": 9696,
      "byteOffset": 14880,
      "byteStride": 8,
      "name": "floatBufferViews",
      "target": 34962
    },
    {
      "buffer": 0,
      "byteLength": 29088,
      "byteOffset": 24576,
      "byteStride": 12,
      "name": "floatBufferViews",
      "target": 34962
    },
    {
      "buffer": 0,
      "byteLength": 19392,
      "byteOffset": 53664,
      "byteStride": 16,
      "name": "floatBufferViews",
      "target": 34962
    }
  ],
  "buffers": [
    {
      "byteLength": 73056,
      "uri": "scene.bin"
    }
  ],
  "images": [
    {
      "uri": "textures/PingPong_Racket1_baseColor.png"
    },
    {
      "uri": "textures/PingPong_Racket1_metallicRoughness.png"
    },
    {
      "uri": "textures/PingPong_Racket1_normal.png"
    }
  ],
  "materials": [
    {
      "doubleSided": true,
      "name": "PingPong_Racket1",
      "normalTexture": {
        "index": 2
      },
      "pbrMetallicRoughness": {
        "baseColorTexture": {
          "index": 0
        },
        "metallicFactor": 0.0,
        "metallicRoughnessTexture": {
          "index": 1
        }
      }
    }
  ],
  "meshes": [
    {
      "name": "Handle_Half1_PingPong_Racket1_0",
      "primitives": [
        {
          "attributes": {
            "NORMAL": 1,
            "POSITION": 0,
            "TANGENT": 2,
            "TEXCOORD_0": 3
          },
          "indices": 4,
          "material": 0,
          "mode": 4
        }
      ]
    },
    {
      "name": "Racket_PingPong_Racket1_0",
      "primitives": [
        {
          "attributes": {
            "NORMAL": 6,
            "POSITION": 5,
            "TANGENT": 7,
            "TEXCOORD_0": 8
          },
          "indices": 9,
          "material": 0,
          "mode": 4
        }
      ]
    },
    {
      "name": "Handle_Half2_PingPong_Racket1_0",
      "primitives": [
        {
          "attributes": {
            "NORMAL": 11,
            "POSITION": 10,
            "TANGENT": 12,
            "TEXCOORD_0": 13
          },
          "indices": 14,
          "material": 0,
          "mode": 4
        }
      ]
    }
  ],
  "nodes": [
    {
      "children": [
        1
      ],
      "matrix": [
        1.0,
        0.0,
        0.0,
        0.0,
        0.0,
        2.220446049250313e-16,
        -1.0,
        0.0,
        0.0,
        1.0,
        2.220446049250313e-16,
        0.0,
        0.0,
        0.0,
        0.0,
        1.0
      ],
      "name": "Sketchfab_model"
    },
    {
      "children": [
        2
      ],
      "matrix": [
        1.0,
        0.0,
        0.0,
        0.0,
        0.0,
        0.0,
        1.0,
        0.0,
        0.0,
        -1.0,
        0.0,
        0.0,
        0.0,
        0.0,
        0.0,
        1.0
      ],
      "name": "PingPong Racket.fbx"
    },
    {
      "children": [
        3
      ],
      "name": "RootNode"
    },
    {
      "children": [
        4,
        6,
        8
      ],
      "name": "PingPong_Racket"
    },
    {
      "children": [
        5
      ],
      "name": "Handle_Half1"
    },
    {
      "mesh": 0,
      "name": "Handle_Half1_PingPong_Racket1_0"
    },
    {
      "children": [
        7
      ],
      "name": "Racket"
    },
    {
      "mesh": 1,
      "name": "Racket_PingPong_Racket1_0"
    },
    {
      "children": [
        9
      ],
      "name": "Handle_Half2"
    },
    {
      "mesh": 2,
      "name": "Handle_Half2_PingPong_Racket1_0"
    }
  ],
  "samplers": [
    {
      "magFilter": 9729,
      "minFilter": 9987,
      "wrapS": 10497,
      "wrapT": 10497
    }
  ],
  "scene": 0,
  "scenes": [
    {
      "name": "Sketchfab_Scene",
      "nodes": [
        0
      ]
    }
  ],
  "textures": [
    {
      "sampler": 0,
      "source": 0
    },
    {
      "sampler": 0,
      "source": 1
    },
    {
      "sampler": 0,
      "source": 2
    }
  ]
}
